<?xml version="1.0" encoding="UTF-8"?>
<!-- Uploaded to: SVG Find, www.svgfind.com, Generator: SVG Find Mixer Tools -->
<svg fill="#000000" width="800px" height="800px" version="1.1" viewBox="144 144 512 512" xmlns="http://www.w3.org/2000/svg">
 <path d="m624.59 395.82-55.105-55.105c-1.1055-1.1055-2.6055-1.7266-4.1719-1.7266h-18.023l12.75-12.75c1.1055-1.1055 1.7305-2.6094 1.7305-4.1758v-77.934c0-3.2578-2.6445-5.9023-5.9023-5.9023h-77.93c-1.5664 0-3.0664 0.62109-4.1758 1.7305l-12.754 12.75v-18.023c0-1.5625-0.62109-3.0664-1.7305-4.1758l-55.105-55.105c-2.3047-2.3047-6.043-2.3047-8.3477 0l-55.105 55.105c-1.1055 1.1055-1.7266 2.6094-1.7266 4.1758v18.027l-12.754-12.754c-1.1055-1.1055-2.6055-1.7305-4.1758-1.7305h-77.93c-3.2578 0-5.9023 2.6445-5.9023 5.9023v27.156c0 3.2578 2.6445 5.9023 5.9023 5.9023 3.2578 0 5.9023-2.6445 5.9023-5.9023v-21.254h69.578l19.379 19.375v69.582h-69.586l-19.367-19.367v-24.715c0-3.2578-2.6445-5.9023-5.9023-5.9023-3.2578 0-5.9023 2.6445-5.9023 5.9023v27.16c0 1.5625 0.62109 3.0664 1.7305 4.1758l12.742 12.746h-18.02c-1.5664 0-3.0664 0.62109-4.1758 1.7305l-55.105 55.105c-2.3047 2.3047-2.3047 6.043 0 8.3477l55.105 55.105c1.1055 1.1016 2.6055 1.7266 4.1758 1.7266h18.023l-12.75 12.75c-1.1055 1.1055-1.7305 2.6094-1.7305 4.1758v77.934c0 3.2578 2.6445 5.9023 5.9023 5.9023h77.93c1.5664 0 3.0664-0.62109 4.1758-1.7305l12.754-12.754v18.027c0 1.5625 0.62109 3.0664 1.7305 4.1758l55.105 55.105c1.1484 1.1484 2.6562 1.7266 4.1719 1.7266s3.0195-0.57812 4.1758-1.7305l55.105-55.105c1.1016-1.1055 1.7266-2.6094 1.7266-4.1719v-18.027l12.754 12.754c1.1055 1.1055 2.6055 1.7305 4.1758 1.7305h77.93c3.2578 0 5.9023-2.6445 5.9023-5.9023l-0.003906-25.98c0-3.2578-2.6445-5.9023-5.9023-5.9023-3.2578 0-5.9023 2.6445-5.9023 5.9023v20.07h-69.578l-19.375-19.371v-69.578h69.586l19.367 19.367v25.895c0 3.2578 2.6445 5.9023 5.9023 5.9023 3.2578 0 5.9023-2.6445 5.9023-5.9023v-28.34c0-1.5625-0.62109-3.0664-1.7305-4.1758l-12.746-12.746h18.023c1.5664 0 3.0664-0.62109 4.1758-1.7305l55.105-55.105c2.3008-2.3047 2.3008-6.043-0.003906-8.3477zm-163.58-126.41 19.371-19.371h69.578v69.582l-19.367 19.371h-69.582zm0 81.387h57.777l-40.848 40.852-16.93-16.922zm-110.21-113.67 49.199-49.199 49.199 49.199v27.391l-49.195 49.199-49.199-49.199zm98.402 44.09v57.773h-23.922l-16.926-16.926zm-98.402 0 40.852 40.848-16.926 16.926h-23.926zm-11.805 69.578v23.926l-16.926 16.926-40.852-40.852zm-101.86 98.402-49.199-49.199 49.199-49.199h27.387l49.199 49.199-49.199 49.199zm101.86 81.387-19.371 19.371h-69.578v-69.582l19.363-19.367h69.586zm0-81.387h-57.777l40.848-40.852 16.93 16.922zm110.21 113.67-49.199 49.199-49.199-49.199-0.003906-27.391 49.203-49.195 49.199 49.199zm-98.402-44.086v-57.773h23.922l16.926 16.926zm98.402 0-40.852-40.848 16.926-16.926h23.926zm1.7305-100.13c-1.1094 1.1055-1.7305 2.6094-1.7305 4.1758v26.371h-26.367c-1.5664 0-3.0664 0.62109-4.1758 1.7305l-18.656 18.652-18.656-18.652c-1.1094-1.1094-2.6094-1.7305-4.1758-1.7305h-26.371v-26.371c0-1.5625-0.62109-3.0664-1.7305-4.1758l-18.656-18.652 18.656-18.652c1.1094-1.1094 1.7305-2.6133 1.7305-4.1758v-26.375h26.367c1.5664 0 3.0664-0.62109 4.1758-1.7305l18.66-18.652 18.656 18.652c1.1055 1.1094 2.6055 1.7305 4.1758 1.7305h26.367v26.371c0 1.5625 0.62109 3.0664 1.7305 4.1758l18.656 18.656zm10.078 30.547v-23.926l16.926-16.926 40.852 40.852zm101.86 0h-27.387l-49.195-49.199 49.199-49.199h27.387l49.199 49.199z"/>
</svg>